<svg width="35" height="25" viewBox="0 0 35 25" fill="none" xmlns="http://www.w3.org/2000/svg">
<path d="M11.6851 11.5753C15.2384 11.5753 18.1255 8.98086 18.1255 5.78767C18.1255 2.59447 15.2384 0 11.6851 0C8.13172 0 5.24466 2.59447 5.24466 5.78767C5.24466 8.98086 8.13172 11.5753 11.6851 11.5753Z" fill="white"/>
<path d="M24.19 20.617V23.2575C24.19 23.8869 23.6263 24.4089 22.9088 24.4089H1.28125C0.580833 24.4089 0 23.8869 0 23.2575V20.617C0 16.9172 3.34833 13.9082 7.46541 13.9082H16.7246C17.5617 13.9082 18.3646 14.031 19.1163 14.2766C19.1163 14.2766 19.1162 14.2613 19.1333 14.2766C22.0717 15.1671 24.19 17.6694 24.19 20.617Z" fill="white"/>
<path d="M24.19 20.617V23.2575C24.19 23.8869 23.6263 24.4089 22.9088 24.4089H1.28125C0.580833 24.4089 0 23.8869 0 23.2575V20.617C0 16.9172 3.34833 13.9082 7.46541 13.9082H16.7246C17.5617 13.9082 18.3646 14.031 19.1163 14.2766C19.1163 14.2766 19.1162 14.2613 19.1333 14.2766C22.0717 15.1671 24.19 17.6694 24.19 20.617Z" fill="white"/>
<path d="M34.1669 19.297V21.4616C34.1669 21.9682 33.7056 22.3827 33.1419 22.3827H26.7527V20.6172C26.7527 19.0667 26.3085 17.5929 25.5398 16.3187C25.2152 15.7967 24.8564 15.3055 24.4464 14.8603C24.156 14.5686 23.8656 14.2769 23.5581 14.0313H28.3073C28.4952 14.0313 28.666 14.0312 28.8369 14.0619C29.059 14.0773 29.281 14.108 29.5031 14.1541C30.8015 14.3997 31.9289 15.0445 32.766 15.9042C32.9027 16.0424 33.0394 16.1959 33.159 16.3647C33.176 16.3647 33.176 16.3647 33.159 16.3801C33.4835 16.8099 33.7398 17.2705 33.9106 17.7771C33.9619 17.946 34.0131 18.1149 34.0473 18.2837C34.1327 18.6061 34.1669 18.9439 34.1669 19.297Z" fill="white"/>
<path d="M24.5659 11.3601C27.387 11.3601 29.6738 9.30502 29.6738 6.76991C29.6738 4.2348 27.387 2.17969 24.5659 2.17969C21.7449 2.17969 19.458 4.2348 19.458 6.76991C19.458 9.30502 21.7449 11.3601 24.5659 11.3601Z" fill="white"/>
</svg>
