<svg width="35" height="31" viewBox="0 0 35 31" fill="none" xmlns="http://www.w3.org/2000/svg">
<path d="M27.4188 1.58125H27.1454V1.15139C27.1454 0.521965 26.5646 0 25.8642 0C25.1637 0 24.5829 0.521965 24.5829 1.15139V1.58125H9.58375V1.15139C9.58375 0.521965 9.02 0 8.3025 0C7.60208 0 7.02125 0.521965 7.02125 1.15139V1.58125H6.74792C3.02375 1.58125 0 4.29853 0 7.64525V24.6398C0 27.9865 3.02375 30.7038 6.74792 30.7038H27.4188C31.1429 30.7038 34.1667 27.9865 34.1667 24.6398V7.64525C34.1667 4.29853 31.1429 1.58125 27.4188 1.58125ZM6.83333 26.0522C5.89375 26.0522 5.125 25.3767 5.125 24.517C5.125 23.6727 5.89375 22.9818 6.83333 22.9818C7.77292 22.9818 8.54167 23.6727 8.54167 24.517C8.54167 25.3767 7.77292 26.0522 6.83333 26.0522ZM6.83333 20.7097C5.89375 20.7097 5.125 20.0189 5.125 19.1746C5.125 18.3148 5.89375 17.6394 6.83333 17.6394C7.77292 17.6394 8.54167 18.3148 8.54167 19.1746C8.54167 20.0189 7.77292 20.7097 6.83333 20.7097ZM6.83333 15.3519C5.89375 15.3519 5.125 14.6611 5.125 13.8167C5.125 12.9724 5.89375 12.2815 6.83333 12.2815C7.77292 12.2815 8.54167 12.9724 8.54167 13.8167C8.54167 14.6611 7.77292 15.3519 6.83333 15.3519ZM13.6667 26.0522C12.7271 26.0522 11.9583 25.3767 11.9583 24.517C11.9583 23.6727 12.7271 22.9818 13.6667 22.9818C14.6063 22.9818 15.375 23.6727 15.375 24.517C15.375 25.3767 14.6063 26.0522 13.6667 26.0522ZM13.6667 20.7097C12.7271 20.7097 11.9583 20.0189 11.9583 19.1746C11.9583 18.3148 12.7271 17.6394 13.6667 17.6394C14.6063 17.6394 15.375 18.3148 15.375 19.1746C15.375 20.0189 14.6063 20.7097 13.6667 20.7097ZM13.6667 15.3519C12.7271 15.3519 11.9583 14.6611 11.9583 13.8167C11.9583 12.9724 12.7271 12.2815 13.6667 12.2815C14.6063 12.2815 15.375 12.9724 15.375 13.8167C15.375 14.6611 14.6063 15.3519 13.6667 15.3519ZM20.5 26.0522C19.5604 26.0522 18.7917 25.3767 18.7917 24.517C18.7917 23.6727 19.5604 22.9818 20.5 22.9818C21.4396 22.9818 22.2083 23.6727 22.2083 24.517C22.2083 25.3767 21.4396 26.0522 20.5 26.0522ZM20.5 20.7097C19.5604 20.7097 18.7917 20.0189 18.7917 19.1746C18.7917 18.3148 19.5604 17.6394 20.5 17.6394C21.4396 17.6394 22.2083 18.3148 22.2083 19.1746C22.2083 20.0189 21.4396 20.7097 20.5 20.7097ZM20.5 15.3519C19.5604 15.3519 18.7917 14.6611 18.7917 13.8167C18.7917 12.9724 19.5604 12.2815 20.5 12.2815C21.4396 12.2815 22.2083 12.9724 22.2083 13.8167C22.2083 14.6611 21.4396 15.3519 20.5 15.3519ZM27.3333 20.7097C26.3938 20.7097 25.625 20.0189 25.625 19.1746C25.625 18.3148 26.3938 17.6394 27.3333 17.6394C28.2729 17.6394 29.0417 18.3148 29.0417 19.1746C29.0417 20.0189 28.2729 20.7097 27.3333 20.7097ZM27.3333 15.3519C26.3938 15.3519 25.625 14.6611 25.625 13.8167C25.625 12.9724 26.3938 12.2815 27.3333 12.2815C28.2729 12.2815 29.0417 12.9724 29.0417 13.8167C29.0417 14.6611 28.2729 15.3519 27.3333 15.3519ZM31.6042 7.90623H2.5625V7.64525C2.5625 5.57274 4.44167 3.88403 6.74792 3.88403H7.02125V4.31388C7.02125 4.95866 7.60208 5.46528 8.3025 5.46528C9.02 5.46528 9.58375 4.95866 9.58375 4.31388V3.88403H24.5829V4.31388C24.5829 4.95866 25.1637 5.46528 25.8642 5.46528C26.5646 5.46528 27.1454 4.95866 27.1454 4.31388V3.88403H27.4188C29.725 3.88403 31.6042 5.57274 31.6042 7.64525V7.90623Z" fill="white"/>
</svg>
