<svg width="30" height="31" viewBox="0 0 30 31" fill="none" xmlns="http://www.w3.org/2000/svg">
<path d="M14.6493 16.1387C16.2966 16.1387 17.632 14.7939 17.632 13.135C17.632 11.4761 16.2966 10.1313 14.6493 10.1313C13.002 10.1313 11.6666 11.4761 11.6666 13.135C11.6666 14.7939 13.002 16.1387 14.6493 16.1387Z" stroke="white" stroke-width="1.5" stroke-linecap="round" stroke-linejoin="round"/>
<path d="M8.63574 24.4441V22.7294C8.63574 20.7351 10.2418 19.1299 12.2101 19.1299H17.5596C19.54 19.1299 21.134 20.7472 21.134 22.7294V24.4441" stroke="white" stroke-width="1.5" stroke-linecap="round" stroke-linejoin="round"/>
<path d="M14.8909 26.8277C21.0598 26.8277 26.0608 21.7916 26.0608 15.5792C26.0608 9.36673 21.0598 4.33057 14.8909 4.33057C8.72189 4.33057 3.72095 9.36673 3.72095 15.5792C3.72095 21.7916 8.72189 26.8277 14.8909 26.8277Z" stroke="white" stroke-width="1.5" stroke-linecap="round" stroke-linejoin="round"/>
</svg>
